<svg id="Layer_1" data-name="Layer 1" xmlns="http://www.w3.org/2000/svg" viewBox="0 0 50 50"><path d="M21.49,27.49a.37.37,0,0,0,.29.69c.12-.05,3-1.22,5.53,2.4a.37.37,0,0,0,.31.17.4.4,0,0,0,.21-.07.37.37,0,0,0,.1-.52C25.09,26,21.52,27.47,21.49,27.49Z"/><rect x="21.18" y="21.7" width="3.04" height="0.75" transform="translate(-0.42 43.71) rotate(-87.31)"/><rect x="26.64" y="22.37" width="2.97" height="0.75" transform="translate(5.22 50.74) rotate(-89.68)"/><path d="M43.15,29.39l-2.73-1.91-4.87,4.93L33.3,28.59l3.12-15.81-17.21-3L17.06,23.38l-3.55,3.18-3.17-6.44L6.9,21.8a.37.37,0,1,0,.33.67L10,21.12l3.29,6.66,3.6-3.23L15.09,35.88l10.69,4.39,5.78-2.87,1.52-7.7,2.07,3.51h0s0,.06,0,.09a.38.38,0,0,0,.26.11.39.39,0,0,0,.27-.11l4.77-4.83L42.72,30a.37.37,0,1,0,.43-.61ZM26.53,39.06l1.29-2.9,2.48,1Zm4.41-2.42-3.51-1.45-1.86,4.19-9.64-4,3.9-24.81,15.71,2.79Z"/></svg>